<svg width="79" height="79" viewBox="0 0 79 79" fill="none" xmlns="http://www.w3.org/2000/svg">
<g opacity="0.3">
<path d="M3.29178 55.9583L16.4584 42.7917L29.6251 55.9583L55.9585 29.625L75.7085 49.375" stroke="#111111" stroke-linecap="round" stroke-linejoin="round"/>
<path d="M69.1251 3.29169H9.87511C6.23924 3.29169 3.29178 6.23915 3.29178 9.87502V69.125C3.29178 72.7609 6.23924 75.7083 9.87511 75.7083H69.1251C72.761 75.7083 75.7085 72.7609 75.7085 69.125V9.87502C75.7085 6.23915 72.761 3.29169 69.1251 3.29169Z" stroke="#111111" stroke-linecap="round" stroke-linejoin="round"/>
<path d="M26.3333 32.9167C29.9692 32.9167 32.9167 29.9692 32.9167 26.3333C32.9167 22.6975 29.9692 19.75 26.3333 19.75C22.6975 19.75 19.75 22.6975 19.75 26.3333C19.75 29.9692 22.6975 32.9167 26.3333 32.9167Z" fill="#111111"/>
</g>
</svg>
