<svg width="75" height="20" viewBox="0 0 75 20" fill="none" xmlns="http://www.w3.org/2000/svg">
<g clip-path="url(#clip0)">
<path fill-rule="evenodd" clip-rule="evenodd" d="M26.2901 8.06772V5.65382H25.6596C25.2357 5.65427 24.8137 5.71046 24.4044 5.82093C23.9881 5.93233 23.6459 6.05609 23.378 6.19221C23.1137 6.32618 22.8595 6.47926 22.6174 6.65023C22.3784 6.81942 22.2218 6.94115 22.1475 7.01543L21.9867 7.17632V5.91378H19.4518V18.0824H21.9867V11.4969C21.9867 10.3745 22.2732 9.50181 22.8462 8.87874C23.4192 8.25567 24.188 7.94414 25.1526 7.94414C25.5353 7.93989 25.9172 7.98138 26.2901 8.06772ZM39.5718 12.8832L39.7078 11.6205C39.7078 9.91222 39.141 8.4907 38.0073 7.35595C36.8736 6.2212 35.4556 5.65382 33.7533 5.65382C32.0508 5.65382 30.5916 6.26245 29.3756 7.47972C28.1595 8.69698 27.5515 10.1598 27.5516 11.8682C27.5516 13.6425 28.1761 15.1631 29.4251 16.4299C30.6742 17.6967 32.1602 18.3301 33.8833 18.3301C34.5182 18.3313 35.1496 18.2374 35.7567 18.0516C36.3626 17.866 36.8552 17.6638 37.2344 17.445C37.6148 17.2257 37.9749 16.9729 38.3105 16.6899C38.6485 16.4052 38.869 16.203 38.9721 16.0833C39.0752 15.9637 39.1514 15.8709 39.2009 15.8049L37.5561 14.1584L37.1727 14.6289C36.9173 14.9343 36.4824 15.2479 35.8681 15.5698C35.2561 15.8911 34.5745 16.0569 33.8833 16.0525C32.9023 16.0525 32.0552 15.7389 31.342 15.1117C30.6287 14.4845 30.2063 13.7418 30.0745 12.8835H39.5718V12.8832ZM33.7472 7.82014C34.6786 7.82014 35.4535 8.09042 36.0719 8.63098C36.6902 9.17153 37.0737 9.87094 37.2222 10.7292H30.1855C30.3999 9.87092 30.8183 9.17151 31.4407 8.63098C32.0631 8.09044 32.832 7.82017 33.7472 7.82014ZM52.235 18.0824V10.2217C52.235 8.93428 51.761 7.85112 50.813 6.97218C49.8649 6.09325 48.6489 5.6538 47.1648 5.65382C46.5812 5.65241 46.0004 5.73368 45.4396 5.89522C44.883 6.0561 44.4358 6.23972 44.0979 6.44605C43.7598 6.65248 43.4393 6.88642 43.1396 7.1455C42.8384 7.40546 42.6447 7.58702 42.5584 7.69016C42.4716 7.79333 42.4036 7.87792 42.3542 7.94391L43.999 9.59035L44.3328 9.1572C44.5306 8.88484 44.8914 8.61457 45.415 8.34637C45.9383 8.07815 46.5216 7.94404 47.1648 7.94404C47.9067 7.94404 48.5148 8.16276 48.9889 8.60018C49.463 9.03761 49.7 9.57817 49.6998 10.2218L45.2604 10.9893C44.1638 11.1709 43.3002 11.6001 42.6694 12.2768C42.0387 12.9535 41.7234 13.7912 41.7236 14.7897C41.7236 15.714 42.1317 16.5352 42.9479 17.2532C43.7641 17.9712 44.7904 18.3302 46.027 18.3302C46.4485 18.33 46.8684 18.2759 47.2762 18.1692C47.6884 18.0619 48.0306 17.9402 48.3027 17.804C48.568 17.6719 48.8223 17.5188 49.0631 17.346C49.2265 17.2332 49.3833 17.1113 49.533 16.9808C49.6114 16.9066 49.6668 16.8528 49.6998 16.8199V18.0826H52.235V18.0824ZM46.4104 16.0523C45.7507 16.0523 45.2252 15.8996 44.8337 15.5942C44.4423 15.2888 44.2465 14.934 44.2464 14.5296C44.2464 14.0922 44.3865 13.7291 44.6667 13.4403C44.9468 13.1515 45.3137 12.9658 45.7674 12.8834L49.7001 12.252V12.4996C49.7001 13.6385 49.4095 14.5153 48.8282 15.1302C48.247 15.745 47.441 16.0524 46.4104 16.0523ZM62.4868 5.65382C61.7656 5.65648 61.0531 5.81261 60.3968 6.11184C59.7128 6.41718 59.2635 6.66477 59.049 6.85459C58.8344 7.04441 58.6696 7.19708 58.5545 7.31258V0.33078H56.0317V18.0824H58.5545V16.6837L58.7398 16.8693C58.8387 16.9684 59.0057 17.1025 59.2407 17.2717C59.499 17.4552 59.7697 17.6206 60.0508 17.7668C60.3558 17.9277 60.7248 18.0618 61.1576 18.1691C61.5925 18.2767 62.0389 18.3307 62.4868 18.3301C64.0862 18.3301 65.4775 17.7132 66.6605 16.4794C67.8436 15.2456 68.4351 13.7498 68.435 11.992C68.435 10.2342 67.8455 8.73837 66.6666 7.50465C65.4877 6.27093 64.0944 5.65399 62.4868 5.65382ZM62.2334 16.0522C61.2728 16.0522 60.4195 15.6561 59.6734 14.8638C58.9274 14.0716 58.5544 13.1163 58.5545 11.9981C58.5545 10.8798 58.9275 9.92459 59.6734 9.13233C60.4194 8.34008 61.2727 7.94394 62.2334 7.94391C63.1939 7.94391 64.0452 8.34005 64.7872 9.13233C65.5292 9.92461 65.9002 10.8799 65.9001 11.9981C65.9001 13.1163 65.5291 14.0716 64.7872 14.8638C64.0449 15.6561 63.1937 16.0522 62.2334 16.0522ZM74.0001 0.330812H71.4773V18.0824H74.0001V0.330812Z" fill="black"/>
<path fill-rule="evenodd" clip-rule="evenodd" d="M9.34176 3.46379C8.47123 3.46271 7.61143 3.65593 6.82506 4.02935L6.50464 3.80025V0.421246C8.0848 -0.0718235 9.76815 -0.132864 11.3799 0.244465C12.9916 0.621793 14.4729 1.42373 15.67 2.56699L13.2695 4.96991C12.192 3.99873 10.7923 3.46203 9.34176 3.46379ZM9.34176 15.2395C10.8261 15.2412 12.2558 14.6791 13.3416 13.667L15.67 15.9978C13.9488 17.6471 11.6564 18.5667 9.27256 18.5644C4.15146 18.5644 0 14.4087 0 9.28236H3.32152C3.32126 9.30554 3.45992 9.32839 3.45992 9.35163C3.45995 12.6034 6.09332 15.2395 9.34176 15.2395Z" fill="#6846F6"/>
</g>
<defs>
<clipPath id="clip0">
<rect width="74" height="18.564" fill="white"/>
</clipPath>
</defs>
</svg>
